<svg width="28" height="28" viewBox="0 0 28 28" fill="none" xmlns="http://www.w3.org/2000/svg">
<path fill-rule="evenodd" clip-rule="evenodd" d="M14 2.625C5.60117 2.625 2.625 5.60233 2.625 14C2.625 22.3977 5.60117 25.375 14 25.375C22.3988 25.375 25.375 22.3977 25.375 14C25.375 5.60233 22.3988 2.625 14 2.625Z" fill="white" fill-opacity="0.5"/>
<path d="M16.568 16.0485L18.2212 10.7658C18.3087 10.487 18.234 10.1813 18.0263 9.97363C17.8198 9.76596 17.5142 9.68896 17.2342 9.7788L11.9492 11.432C11.703 11.509 11.5093 11.7015 11.4323 11.9488L9.778 17.2338C9.6905 17.5138 9.76633 17.8195 9.97283 18.026C10.1233 18.1765 10.3252 18.257 10.5305 18.257C10.6098 18.257 10.688 18.2453 10.7662 18.2208L16.0512 16.5665C16.2973 16.4895 16.491 16.2958 16.568 16.0485Z" fill="#282C2E"/>
</svg>
