<svg width="24" height="22" viewBox="0 0 24 22" fill="none" xmlns="http://www.w3.org/2000/svg">
<path fill-rule="evenodd" clip-rule="evenodd" d="M21.2155 10.9988C21.2155 11.9042 21.7556 12.8165 22.9608 12.8165C23.2828 12.8165 23.5441 13.0767 23.5441 13.3998C23.5441 19.5773 23.018 21.5303 12 21.5303C0.981978 21.5303 0.455811 19.5773 0.455811 13.3998C0.455811 13.0767 0.715977 12.8165 1.03914 12.8165C1.59098 12.8165 2.02964 12.6322 2.34348 12.2682C2.62348 11.9438 2.78331 11.4807 2.78331 10.9988C2.78331 10.0958 2.24431 9.18233 1.03914 9.18233C0.715977 9.18233 0.455811 8.92216 0.455811 8.599C0.455811 2.42383 0.981978 0.469666 12 0.469666C23.018 0.469666 23.5441 2.42383 23.5441 8.599C23.5441 8.92216 23.2828 9.18233 22.9608 9.18233C21.7556 9.18233 21.2155 10.0958 21.2155 10.9988Z" fill="white" fill-opacity="0.5"/>
<path d="M10.8313 7.9876C11.0313 7.56671 11.3501 7.03331 11.9994 7.03331C12.6487 7.03331 12.9674 7.56671 13.1675 7.9876C13.2208 8.09967 13.2705 8.21498 13.3176 8.32414L13.32 8.3297L13.32 8.32978C13.3669 8.43858 13.4112 8.54115 13.4569 8.63794C13.5523 8.83996 13.64 8.98441 13.7333 9.07313C13.7981 9.13418 13.9246 9.18443 14.1494 9.21411C14.3017 9.23422 14.4614 9.24146 14.6359 9.24937C14.7177 9.25309 14.8028 9.25694 14.8919 9.26235C15.1512 9.27807 15.4425 9.30732 15.6896 9.40789C15.953 9.51511 16.1814 9.71075 16.2679 10.0467C16.3496 10.3659 16.2741 10.6399 16.1241 10.8663C15.9834 11.0788 15.7759 11.2519 15.5888 11.3969C15.5325 11.4404 15.4782 11.4814 15.4258 11.5209C15.2907 11.6229 15.1684 11.7152 15.0592 11.8167C14.9111 11.9543 14.8307 12.0715 14.8036 12.1838C14.7725 12.3141 14.7842 12.4767 14.8293 12.6839C14.8515 12.7855 14.8798 12.8904 14.9109 13.0019L14.926 13.056L14.926 13.0562C14.9521 13.1493 14.9795 13.2471 15.0033 13.3433C15.0594 13.5696 15.1075 13.8281 15.0718 14.0785C15.0336 14.3466 14.9015 14.5912 14.6341 14.7763C14.0764 15.1606 13.5085 14.8833 13.1031 14.6486C13.0187 14.5997 12.9409 14.5525 12.8662 14.5071L12.8661 14.507C12.7379 14.4292 12.6188 14.3569 12.4914 14.2915C12.2969 14.1918 12.1378 14.1396 11.9994 14.1396C11.861 14.1396 11.7018 14.1918 11.5074 14.2915C11.38 14.3569 11.2609 14.4292 11.1327 14.507L11.1326 14.5071L11.1321 14.5074C11.0575 14.5527 10.9798 14.5999 10.8957 14.6486C10.4902 14.8833 9.92291 15.161 9.36516 14.7767C9.09807 14.5915 8.96563 14.3463 8.92753 14.0784C8.89194 13.8282 8.93989 13.5697 8.99589 13.3434C9.0197 13.2473 9.04702 13.1495 9.07304 13.0564L9.0882 13.002C9.11919 12.8906 9.14751 12.7856 9.16957 12.6841C9.2146 12.4769 9.22624 12.3142 9.19518 12.1838C9.16809 12.0715 9.08765 11.9543 8.93957 11.8167C8.83032 11.7152 8.70808 11.623 8.57292 11.521L8.57255 11.5207C8.52035 11.4813 8.46604 11.4403 8.41 11.3969C8.22283 11.2519 8.01537 11.0788 7.87464 10.8663C7.72467 10.6399 7.64902 10.3664 7.73069 10.0472C7.81724 9.71124 8.04574 9.51511 8.30916 9.40789C8.55625 9.30732 8.84758 9.27807 9.1069 9.26235C9.196 9.25694 9.28108 9.25309 9.3629 9.24937C9.53736 9.24146 9.69701 9.23422 9.84937 9.21411C10.0742 9.18443 10.2007 9.13418 10.2655 9.07313C10.3588 8.98441 10.4464 8.83996 10.5419 8.63794C10.5876 8.54109 10.6318 8.4386 10.6787 8.32973L10.6811 8.32414C10.7282 8.21498 10.778 8.09967 10.8313 7.9876Z" fill="#282C2E"/>
</svg>
