<svg width="26" height="24" viewBox="0 0 26 24" fill="none" xmlns="http://www.w3.org/2000/svg">
<path d="M24.91 13.68L20.4098 21.4746C20.1149 21.9854 19.6908 22.4095 19.18 22.7044C18.6692 22.9993 18.0898 23.1546 17.5 23.1546H8.49972C7.90993 23.1546 7.33054 22.9993 6.81977 22.7044C6.309 22.4095 5.88486 21.9854 5.58996 21.4746L1.0898 13.68C0.794901 13.1692 0.639648 12.5898 0.639648 12C0.639648 11.4102 0.794901 10.8308 1.0898 10.32L5.58996 2.52534C5.88486 2.01456 6.309 1.59041 6.81977 1.29551C7.33054 1.00061 7.90993 0.845352 8.49972 0.845337H17.5C18.0898 0.845352 18.6692 1.00061 19.18 1.29551C19.6908 1.59041 20.1149 2.01456 20.4098 2.52534L24.91 10.32C25.2049 10.8308 25.3601 11.4102 25.3601 12C25.3601 12.5898 25.2049 13.1692 24.91 13.68Z" fill="white"/>
<path d="M9.91992 12C9.91992 12.8169 10.2444 13.6003 10.822 14.1779C11.3996 14.7555 12.1831 15.08 12.9999 15.08C13.8168 15.08 14.6002 14.7555 15.1778 14.1779C15.7554 13.6003 16.0799 12.8169 16.0799 12C16.0799 11.1831 15.7554 10.3997 15.1778 9.82209C14.6002 9.24448 13.8168 8.91998 12.9999 8.91998C12.1831 8.91998 11.3996 9.24448 10.822 9.82209C10.2444 10.3997 9.91992 11.1831 9.91992 12Z" fill="#121314"/>
</svg>
