<svg width="24" height="22" viewBox="0 0 24 22" fill="none" xmlns="http://www.w3.org/2000/svg">
<path fill-rule="evenodd" clip-rule="evenodd" d="M18.1492 14.7007C16.0177 14.7007 14.2841 12.967 14.2841 10.8367C14.2841 8.70517 16.0177 6.97033 18.1492 6.97033H23.0609C22.0366 2.24067 18.7781 0.454498 12.0009 0.454498C3.55891 0.454498 0.566406 3.21483 0.566406 11C0.566406 18.7863 3.55891 21.5455 12.0009 21.5455C18.9332 21.5455 22.1859 19.6788 23.1286 14.7007H18.1492Z" fill="#282C2E"/>
<path fill-rule="evenodd" clip-rule="evenodd" d="M11.5938 7.08117H6.85718C6.37418 7.08117 5.98218 6.68917 5.98218 6.20617C5.98218 5.72317 6.37418 5.33117 6.85718 5.33117H11.5938C12.0768 5.33117 12.4688 5.72317 12.4688 6.20617C12.4688 6.68917 12.0768 7.08117 11.5938 7.08117Z" fill="#F6F6F6"/>
<path fill-rule="evenodd" clip-rule="evenodd" d="M18.1491 12.9506C16.9836 12.9506 16.0339 12.0021 16.0339 10.8366C16.0339 9.66997 16.9836 8.7203 18.1491 8.7203H23.3244C23.3933 9.4308 23.4341 10.181 23.4341 11C23.4341 11.6941 23.4014 12.3346 23.3524 12.9506H18.1491ZM19.1876 10.7665C19.1876 11.2495 18.7956 11.6415 18.3126 11.6415C17.8296 11.6415 17.4376 11.2495 17.4376 10.7665C17.4376 10.2835 17.8296 9.89153 18.3126 9.89153C18.7956 9.89153 19.1876 10.2835 19.1876 10.7665Z" fill="#282C2E"/>
</svg>
